<svg width="34" height="35" viewBox="0 0 34 35" fill="none" xmlns="http://www.w3.org/2000/svg">
<path d="M7.65848 21.037L6.48775 25.4074L2.20874 25.4979C0.929943 23.1261 0.20459 20.4124 0.20459 17.5286C0.20459 14.7401 0.882778 12.1104 2.08491 9.79492H2.08583L5.89535 10.4933L7.56415 14.2799C7.21487 15.2982 7.0245 16.3912 7.0245 17.5286C7.02463 18.7631 7.24824 19.9458 7.65848 21.037Z" fill="#FBBB00"/>
<path d="M33.5472 14.3868C33.7404 15.404 33.8411 16.4546 33.8411 17.5283C33.8411 18.7322 33.7145 19.9066 33.4733 21.0394C32.6547 24.8943 30.5156 28.2603 27.5524 30.6423L27.5515 30.6414L22.7532 30.3966L22.0741 26.1573C24.0403 25.0042 25.577 23.1997 26.3864 21.0394H17.394V14.3868H26.5176H33.5472Z" fill="#518EF8"/>
<path d="M27.5479 30.6418L27.5489 30.6428C24.6669 32.9592 21.006 34.3451 17.0208 34.3451C10.6166 34.3451 5.04864 30.7657 2.20825 25.4981L7.65799 21.0371C9.07815 24.8272 12.7344 27.5253 17.0208 27.5253C18.8633 27.5253 20.5893 27.0272 22.0705 26.1578L27.5479 30.6418Z" fill="#28B446"/>
<path d="M27.753 4.58434L22.3051 9.04437C20.7722 8.08623 18.9602 7.53273 17.0189 7.53273C12.6355 7.53273 8.91084 10.3545 7.56182 14.2806L2.08344 9.79559H2.08252C4.88133 4.39956 10.5195 0.712891 17.0189 0.712891C21.0993 0.712891 24.8406 2.16633 27.753 4.58434Z" fill="#F14336"/>
</svg>
